<?xml version="1.0" encoding="utf-8"?>
<!-- Generator: Adobe Illustrator 23.0.3, SVG Export Plug-In . SVG Version: 6.00 Build 0)  -->
<svg version="1.1" id="Layer_1" xmlns="http://www.w3.org/2000/svg" xmlns:xlink="http://www.w3.org/1999/xlink" x="0px" y="0px"
	 viewBox="0 0 50 50" style="enable-background:new 0 0 50 50;" xml:space="preserve">
<style type="text/css">
	.st0{fill:#FFFFFF;}
</style>
<title>CameraIcon</title>
<g>
	<path class="st0" d="M30.5,28.5c-1.8-1.2-2.3-3.7-1-5.6c0.3-0.4,0.7-0.8,1.1-1.1l7-4.6l7-4.6c2.2-1.5,5,0.4,5,3.4l-0.1,9.3
		l-0.1,9.3c0,2.9-2.8,4.8-5,3.3l-6.9-4.7L30.5,28.5z"/>
	<path class="st0" d="M4.1,10.2h26c2,0,3.7,1.6,3.7,3.7v22.2c0,2-1.6,3.7-3.7,3.7h-26c-2,0-3.7-1.6-3.7-3.7V13.9
		C0.4,11.9,2.1,10.2,4.1,10.2z"/>
</g>
</svg>
