<svg xmlns="http://www.w3.org/2000/svg" viewBox="0 0 100.8 87.09"><defs><style>.cls-1{fill:#0d1f3f;}.cls-2{fill:#ffc31a;}.cls-3{fill:#d88439;}.cls-4{fill:#ffdc85;}</style></defs><title>share_friend</title><g id="Layer_2" data-name="Layer 2"><path class="cls-1" d="M31.75,46.59A23.3,23.3,0,0,1,31.72,0a23.3,23.3,0,0,1,0,46.59ZM31.72,7A16.26,16.26,0,0,0,15.48,23.24a16.45,16.45,0,0,0,.74,4.88,16.25,16.25,0,1,0,31-9.64A16.15,16.15,0,0,0,31.72,7Z"/><path class="cls-1" d="M72.88,86.8H70.22A6.73,6.73,0,0,1,63.57,80V68.59H54.88a6.56,6.56,0,0,1-2.28-.4,6.65,6.65,0,0,1-6.36-6.64V58.88a6.65,6.65,0,0,1,6.64-6.64h1.49a4.12,4.12,0,0,1,.51,0h8.69V42.38a6.73,6.73,0,0,1,6.65-6.8h5.62a6.8,6.8,0,0,1,6.79,6.8v9.83H94A6.8,6.8,0,0,1,100.8,59v2.8A6.8,6.8,0,0,1,94,68.59H82.63V80a6.8,6.8,0,0,1-6.79,6.8H73.48C73.28,86.78,73.08,86.8,72.88,86.8Zm-2.31-7,5.06,0V61.59H93.8V59.21H75.63V42.58H70.57V59.21l-17.33,0v1.95h1l.75.4H70.57ZM55.17,59.19h0Z"/><path class="cls-1" d="M63.51,87.09H0V70A31.89,31.89,0,0,1,18.21,41.27l1.93-.92,1.7,1.31a16.26,16.26,0,0,0,18.79.74c.29-.19.58-.4.86-.61l.22-.16,1.69-1.29,1.9.93a31.45,31.45,0,0,1,9.59,7l.14.15c.13.14.27.28.4.43l5.2,5.83H47.43a.34.34,0,0,0-.34.34V65.26a.34.34,0,0,0,.34.34H63.35l.16,9.78ZM7,80.09H56.51l0-7.49h-9a7.34,7.34,0,0,1-7.34-7.34V55A7.36,7.36,0,0,1,43.29,49a22.67,22.67,0,0,1-3.75,1.72,23.2,23.2,0,0,1-20.1-2.18A24.89,24.89,0,0,0,7,70Z"/><circle class="cls-2" cx="31.75" cy="23.35" r="19.74"/><path class="cls-3" d="M31.72,3.5A19.75,19.75,0,1,0,51.47,23.24,19.74,19.74,0,0,0,31.72,3.5Zm-.94,35.16A16.73,16.73,0,1,1,47.5,21.94,16.73,16.73,0,0,1,30.78,38.66Z"/><circle class="cls-4" cx="26.72" cy="18.47" r="10.01"/><path class="cls-2" d="M43.59,65.26V55a3.84,3.84,0,0,1,3.84-3.84h5.39a28.33,28.33,0,0,0-9-6.76,19.73,19.73,0,0,1-24.11,0A28.26,28.26,0,0,0,3.5,70v13.6H60V75.43l-.1-6.33H47.43A3.84,3.84,0,0,1,43.59,65.26Z"/><path class="cls-3" d="M94,55.71H79.13V42.38a3.29,3.29,0,0,0-3.29-3.3H73a3.29,3.29,0,0,0-3.29,3.3V55.71H54.88a3.3,3.3,0,0,0-3.3,3.3V61.8a3.29,3.29,0,0,0,3.3,3.29H69.75V80A3.29,3.29,0,0,0,73,83.26h2.8A3.29,3.29,0,0,0,79.13,80V65.09H94a3.29,3.29,0,0,0,3.3-3.29V59A3.3,3.3,0,0,0,94,55.71Z"/><path class="cls-3" d="M43.59,65.31V55a3.79,3.79,0,0,1,3.79-3.79h5.44a28.33,28.33,0,0,0-9-6.76,19.6,19.6,0,0,1-5.45,3c2.8,7.41,5.25,17.1,2.55,23.93-3.5,8.83-25,9.1-37.41,8.49v3.77H60V75.43l-.1-6.33H47.38A3.79,3.79,0,0,1,43.59,65.31Z"/><path class="cls-4" d="M18.36,59.59c-3.22,3.87-6.18,6.52-8.41,4.66s-1.43-6.49,1.79-10.36,7.64-5.49,9.87-3.63S21.58,55.73,18.36,59.59Z"/><path class="cls-2" d="M72.88,83.3H70.22A3.23,3.23,0,0,1,67.07,80V42.38a3.23,3.23,0,0,1,3.15-3.3h2.66A3.23,3.23,0,0,1,76,42.38V80A3.23,3.23,0,0,1,72.88,83.3Z"/><rect class="cls-2" x="49.74" y="55.74" width="43.63" height="8.95" rx="3.15"/><path class="cls-4" d="M53.6,57.33H66.2a0,0,0,0,1,0,0v3a0,0,0,0,1,0,0H52.38a0,0,0,0,1,0,0V58.54A1.21,1.21,0,0,1,53.6,57.33Z"/></g></svg>