<svg xmlns="http://www.w3.org/2000/svg" viewBox="0 0 82.23 72.91"><defs><style>.cls-1{fill:none;stroke:#0d1f3f;stroke-miterlimit:10;stroke-width:6.41px;}.cls-2{fill:#9e364c;}.cls-3{fill:#e15970;}.cls-4{fill:#ff7694;}.cls-5{fill:#bc4866;}.cls-6{fill:#873044;}</style></defs><title>back</title><g id="Layer_7" data-name="Layer 7"><path class="cls-1" d="M71.11,18H58.21l0-2.83c0-.35,0-.69,0-1V14A11.14,11.14,0,0,0,41.75,4.56L9.14,23.67a10,10,0,0,0-4.68,5.54C1.8,35.47,3.39,44.43,9.1,47.73l32,20.4a11.6,11.6,0,0,0,17.41-10l0-2.11a9.49,9.49,0,0,0,.24-1.35h.07v.09L64,54.62h7.09A7.91,7.91,0,0,0,79,46.71V25.87A7.92,7.92,0,0,0,71.11,18Z"/><rect class="cls-2" x="43.13" y="24.26" width="35.9" height="30.4" rx="7.92"/><path class="cls-2" d="M41.1,5.11,8.92,24C1.18,28.42,1.36,43.3,9.1,47.77l32,20.41A11.61,11.61,0,0,0,58.51,58.12l-.33-43A11.36,11.36,0,0,0,41.1,5.11Z"/><path class="cls-3" d="M41.75,4.6,9.14,23.71c-7.15,4-7,14.18.3,18.39L42.71,62.28c7.28,4.21,16.22-.75,16.08-8.93l-.65-39.29A11.14,11.14,0,0,0,41.75,4.6Z"/><rect class="cls-3" x="43.13" y="17.99" width="35.9" height="30.4" rx="7.92"/><rect class="cls-4" x="27.3" y="12.37" width="23.16" height="13.92" rx="5.75" transform="matrix(0.87, -0.5, 0.5, 0.87, -4.45, 22.03)"/><rect class="cls-4" x="11.58" y="23.16" width="16.36" height="13.92" rx="6.96" transform="translate(-12.41 13.92) rotate(-30)"/><polygon class="cls-5" points="65.95 48.4 58.8 48.42 58.2 18 65.95 17.98 65.95 48.4"/><rect class="cls-6" x="58.76" y="48.4" width="7.24" height="6.27"/></g></svg>