<svg xmlns="http://www.w3.org/2000/svg" viewBox="0 0 53 70"><defs><style>.cls-1{fill:#fff;}</style></defs><g id="Layer_2" data-name="Layer 2"><path class="cls-1" d="M22.94,56a4.17,4.17,0,1,0-4.16,4.18A4.17,4.17,0,0,0,22.94,56Z"/><path class="cls-1" d="M24,61.63a4.19,4.19,0,1,0,4.17,4.18A4.18,4.18,0,0,0,24,61.63Z"/><ellipse class="cls-1" cx="34.71" cy="56.42" rx="4.17" ry="4.19"/><path class="cls-1" d="M49.5,23.1A23,23,0,1,0,6.07,33.69c2,4.49,6.66,14.15,10.15,13.69,0,0,1.66.33,3.36-2.2l0,0a23.67,23.67,0,0,0,3.28.75l.06.16s-.29,7.64,3.8,8.08c0,0,4.16.23,4.5-8.43.72-.15,1.42-.33,2.11-.54.17.74,1.19,4.67,4.5,4.27,0,0,2.88.71,9.89-17.34h-.05A23.07,23.07,0,0,0,49.5,23.1ZM26.39,40.67c-8.07,0-14.62-5-14.62-11.11,0-3.86,6.55,2.09,14.62,2.09S41,25.15,41,29.56C41,35.7,34.46,40.67,26.39,40.67Zm-15.47-20c0-8.49,6.86-13,15.31-13s16.5,4.51,16.5,13S10.92,29.15,10.92,20.66Z"/></g></svg>