<?xml version="1.0" encoding="utf-8"?>
<!-- Generator: Adobe Illustrator 24.0.2, SVG Export Plug-In . SVG Version: 6.00 Build 0)  -->
<svg version="1.1" id="Layer_1" xmlns="http://www.w3.org/2000/svg" xmlns:xlink="http://www.w3.org/1999/xlink" x="0px" y="0px"
	 viewBox="0 0 48 56.3" style="enable-background:new 0 0 48 56.3;" xml:space="preserve">
<style type="text/css">
	.st0{fill:#FFFFFF;}
	.st1{fill:none;stroke:#8E8E8E;stroke-width:4.05;stroke-miterlimit:10;}
	.st2{fill:none;stroke:#6D6D6D;stroke-width:4.05;stroke-miterlimit:10;}
	.st3{fill:#C68910;}
	.st4{fill:#FFC139;}
	.st5{fill:none;stroke:#BCBCBC;stroke-width:4.05;stroke-miterlimit:10;}
	.st6{fill:none;stroke:#DBDBDB;stroke-width:4.05;stroke-miterlimit:10;}
	.st7{opacity:0.6;fill:#FFE357;enable-background:new    ;}
	.st8{opacity:0.6;fill:#FFEDA1;enable-background:new    ;}
</style>
<title>lock_1</title>
<g id="Layer_2_1_">
	<path class="st0" d="M39.3,56.3H8.7c-4.8,0-8.7-3.9-8.7-8.7v-22c0-4.2,3.2-7.8,7.5-8.2v-0.9c0-5.8,3.1-11.2,8.1-14.2h0.1
		C16,2.2,16.4,2,16.8,1.8l0.3-0.1c0.3-0.2,0.7-0.3,1-0.4L18.4,1c0.4-0.1,0.8-0.3,1.2-0.4L20,0.6L20.7,3L20,0.5
		C21.4,0.2,22.7,0,24.1,0h0c9.2,0,16.6,7.5,16.6,16.7v0.9c4.1,0.5,7.2,4,7.2,8.1v22C48,52.5,44.1,56.3,39.3,56.3z M8.2,22.5
		c-1.8,0-3.2,1.4-3.2,3.2l0,0v22c0,2,1.7,3.7,3.7,3.7h30.6c2,0,3.7-1.7,3.7-3.7c0,0,0,0,0,0v-22c0-1.8-1.4-3.2-3.2-3.2l0,0L8.2,22.5
		z M16.5,17.5h15.2v-0.8c0-4.2-3.4-7.6-7.6-7.6h-0.3c-0.2,0-0.3,0-0.5,0c-0.2,0-0.4,0-0.5,0.1h-0.1l-0.3,0.1h-0.1
		c-0.3,0.1-0.6,0.2-0.9,0.3l-0.1,0.1c-0.3,0.1-0.6,0.2-0.8,0.4c-0.5,0.3-1,0.6-1.4,1l-0.3,0.3c-1.5,1.4-2.3,3.4-2.3,5.4L16.5,17.5z"
		/>
	<path class="st1" d="M36,21.9v-5.5c0-6.7-5.4-12.1-12.1-12.1l0,0c-6.7,0-12.1,5.4-12.1,12.1l0,0v5.5"/>
	<path class="st2" d="M11.8,16.4v5.5"/>
	<path class="st2" d="M36,21.9v-5.5"/>
	<path class="st3" d="M39.2,19.8H8c-3.1,0-5.7,2.6-5.7,5.7l0,0v22c0,3.4,2.8,6.2,6.2,6.2h30.2c3.4,0,6.2-2.8,6.2-6.2v-22
		C44.9,22.3,42.3,19.8,39.2,19.8z M27.2,38.5l1,7.9H21l1-7.9c-2.7-1.4-3.8-4.8-2.4-7.5s4.8-3.8,7.5-2.4s3.8,4.8,2.4,7.5
		C29,37.1,28.2,38,27.2,38.5L27.2,38.5z"/>
	<path class="st4" d="M39.6,19.8H14.4c-3.1,0-5.7,2.6-5.7,5.7l0,0v22c0,3.4,2.8,6.2,6.2,6.2h24.2c3.4,0,6.2-2.8,6.2-6.2v-22
		C45.3,22.3,42.7,19.8,39.6,19.8z M29.6,38.5l1,7.9h-7.1l1-7.9c-2.7-1.4-3.8-4.8-2.4-7.5s4.8-3.8,7.5-2.4s3.8,4.8,2.4,7.5
		C31.5,37.1,30.7,38,29.6,38.5L29.6,38.5z"/>
	<path class="st5" d="M15.9,7.4c2.2-2,5.1-3.1,8.1-3.1l0,0"/>
	<path class="st6" d="M17.9,5.9c1-0.6,2.2-1,3.4-1.3"/>
	<path class="st7" d="M9.5,29.3c-0.6,0-1-0.4-1-1v-2.1c0.5-6.4,5.1-6.5,5.2-6.5h4.7c0.6,0,1,0.4,1,1s-0.4,1-1,1h-4.7
		c-0.3,0-2.9,0.2-3.2,4.6l0,2C10.5,28.8,10.1,29.3,9.5,29.3z"/>
	<path class="st7" d="M39.4,53.6h-1.8c-0.6,0-1-0.4-1-1s0.4-1,1-1h1.8c2.3-0.3,4-2.2,4-4.5v-2.1c0-0.6,0.4-1,1-1s1,0.4,1,1V47
		C45.4,50.3,42.8,53.2,39.4,53.6C39.4,53.6,39.4,53.6,39.4,53.6z"/>
	<path class="st7" d="M34.3,53.6h-4.9c-0.6,0-1-0.4-1-1s0.4-1,1-1h4.9c0.6,0,1,0.4,1,1S34.8,53.6,34.3,53.6z"/>
	<path class="st7" d="M24,21.7h-2.4c-0.6,0-1-0.4-1-1s0.4-1,1-1H24c0.6,0,1,0.4,1,1S24.5,21.7,24,21.7z"/>
	<path class="st7" d="M4.5,27.4c-0.5,0-0.9-0.4-1-0.9c-0.2-1.8,0.5-3.6,1.8-4.8c0.4-0.4,1-0.3,1.4,0.1c0.4,0.4,0.3,1-0.1,1.4
		c-0.9,0.8-1.3,2-1.2,3.2c0.1,0.5-0.3,1-0.9,1.1C4.6,27.4,4.5,27.4,4.5,27.4z"/>
	<path class="st7" d="M6.4,51.3c-0.2,0-0.4-0.1-0.5-0.2c-1.7-1.1-2.6-2.9-2.6-4.9c0-0.5,0.5-1,1-1c0,0,0,0,0,0c0.6,0,1,0.5,1,1
		c0,1.3,0.6,2.5,1.7,3.1c0.5,0.3,0.6,0.9,0.3,1.4C7,51.2,6.7,51.3,6.4,51.3z"/>
	<path class="st7" d="M4.5,31.4c-0.6,0-1-0.4-1-1V29c0-0.6,0.4-1,1-1s1,0.4,1,1v1.3C5.5,30.9,5,31.4,4.5,31.4z"/>
	<path class="st7" d="M9.9,25.2c-0.1,0-0.2,0-0.3,0c-0.5-0.2-0.8-0.7-0.7-1.2c1.2-4.1,4.6-4.1,4.8-4.1c0.6,0,1,0.4,1,1
		c0,0.5-0.4,1-1,1c-0.2,0-2.1,0.1-2.9,2.7C10.7,24.9,10.3,25.2,9.9,25.2z"/>
	<path class="st8" d="M10.4,23.9c-0.2,0-0.3,0-0.5-0.1c-0.5-0.3-0.7-0.9-0.4-1.4c0.5-0.9,1.2-1.6,2.1-2.1c0.5-0.3,1.1-0.1,1.4,0.4
		s0.1,1.1-0.4,1.4c-0.5,0.3-1,0.8-1.3,1.3C11.1,23.7,10.8,23.9,10.4,23.9z"/>
</g>
</svg>
