<svg xmlns="http://www.w3.org/2000/svg" viewBox="0 0 65.95 80.43"><defs><style>.cls-1{fill:#2d2d2d;}.cls-2{fill:#ccc;}.cls-3{fill:#5e5e5e;}.cls-4{fill:#303030;}.cls-5{fill:#565656;}.cls-6{fill:#aaa;}.cls-7{fill:#686868;}.cls-8{fill:#bfbfbf;}.cls-10,.cls-9{fill:none;stroke-miterlimit:10;stroke-width:1.3px;}.cls-9{stroke:#2d2d2d;}.cls-10{stroke:#828282;}.cls-11{fill:#7c7c7c;}.cls-12{fill:#5b5b5b;}.cls-13{fill:#a0a0a0;}</style></defs><title>movie_icon_B&amp;amp;W</title><g id="Layer_2" data-name="Layer 2"><path class="cls-1" d="M59.16,80.43H9.71A6.72,6.72,0,0,1,3,73.72V35.57a6.41,6.41,0,0,1-.7-10.35L.74,20.09,60.6,0l4,13.25L20.38,28.11H66l-.09,45.62A6.71,6.71,0,0,1,59.16,80.43ZM3.07,31.06a3.49,3.49,0,0,0,2,2.27l.88.39v40a3.77,3.77,0,0,0,3.77,3.77H59.16a3.77,3.77,0,0,0,3.76-3.77h0L63,31.06ZM4.39,22l1.38,4.54-1,.58a3.47,3.47,0,0,0-1.79,3,3.26,3.26,0,0,0,.07.7L61,11.37,58.67,3.76Z"/><polygon class="cls-2" points="62.79 12.21 5.72 31.36 2.58 21.04 59.65 1.88 62.79 12.21"/><path class="cls-3" d="M4.49,30.64H64.41a0,0,0,0,1,0,0V73.72A5.24,5.24,0,0,1,59.17,79H9.72a5.24,5.24,0,0,1-5.24-5.24V30.64a0,0,0,0,1,0,0Z"/><rect class="cls-2" x="4.49" y="29.98" width="59.92" height="10.8"/><rect class="cls-4" x="4.49" y="40.73" width="59.92" height="0.93"/><polygon class="cls-5" points="55.81 40.73 44.03 40.73 52.68 29.98 64.46 29.98 55.81 40.73"/><polygon class="cls-5" points="35.59 40.73 23.81 40.73 32.47 29.98 44.24 29.98 35.59 40.73"/><polygon class="cls-5" points="52.3 15.66 41.12 19.4 45.92 6.47 57.09 2.73 52.3 15.66"/><polygon class="cls-5" points="33.12 22.08 21.95 25.82 26.75 12.88 37.92 9.14 33.12 22.08"/><polygon class="cls-5" points="14 28.36 2.83 32.1 7.63 19.17 18.8 15.43 14 28.36"/><polygon class="cls-5" points="11.35 29.98 4.49 38.5 4.49 40.73 14.48 40.73 23.13 29.98 11.35 29.98"/><path class="cls-1" d="M30.18,54.86l-.09,9.45A1.91,1.91,0,0,0,33,66l8.31-4.8a1.91,1.91,0,0,0,0-3.32L33,53.22A1.91,1.91,0,0,0,30.18,54.86Z"/><path class="cls-6" d="M30.66,55.22v8.61a1.72,1.72,0,0,0,2.59,1.5L40.71,61a1.73,1.73,0,0,0,0-3l-7.46-4.31A1.73,1.73,0,0,0,30.66,55.22Z"/><path class="cls-2" d="M31.94,57.17a1.73,1.73,0,0,1,2.59-1.5l7,4.06a1.68,1.68,0,0,0-.84-1.7l-7.46-4.31a1.73,1.73,0,0,0-2.59,1.5v8.61a1.72,1.72,0,0,0,1.27,1.67Z"/><path class="cls-7" d="M40.71,58l-.28-.16A1.7,1.7,0,0,1,39.71,60l-7.46,4.31a1.67,1.67,0,0,1-1.47.1,1.72,1.72,0,0,0,2.47.89L40.71,61A1.73,1.73,0,0,0,40.71,58Z"/><path class="cls-8" d="M30.68,55.29V63.9A1.72,1.72,0,0,0,32,65.57V57.24"/><circle class="cls-9" cx="34.14" cy="59.66" r="15.46"/><circle class="cls-10" cx="35.01" cy="59.41" r="15.46"/><polygon class="cls-4" points="62.83 12.31 5.76 31.47 5.49 30.58 62.55 11.43 62.83 12.31"/><circle class="cls-11" cx="6.46" cy="30.13" r="4.97"/><ellipse class="cls-12" cx="6.36" cy="30.26" rx="3.02" ry="2.98"/><circle class="cls-13" cx="6.36" cy="30.22" r="2.64"/></g></svg>