<svg xmlns="http://www.w3.org/2000/svg" viewBox="0 0 50.34 59.48"><defs><style>.cls-1{fill:#0d1f3f;}.cls-2{fill:#2752a6;}.cls-3{fill:#3882d4;}.cls-4{fill:#50aaff;}</style></defs><title>play_icon</title><g id="Layer_7" data-name="Layer 7"><path class="cls-1" d="M12.08,59.48a12.08,12.08,0,0,1-6-1.64A12,12,0,0,1,0,47.38L.27,12.32c0-.31,0-.64,0-1A11.48,11.48,0,0,1,6.15,1.6a11.5,11.5,0,0,1,11.41-.17L44.21,17.05a10.7,10.7,0,0,1,4.93,5.83c2.51,6,1.16,14.76-4.86,18.28L18.12,57.84A12.06,12.06,0,0,1,12.08,59.48Zm0-54.25a6.57,6.57,0,0,0-3.28.9,6.28,6.28,0,0,0-3.23,5.35v.23q0,.3,0,.63L5.23,47.4a6.86,6.86,0,0,0,10.23,5.94L41.61,36.66c3.48-2,4.3-8,2.68-11.81l-.06-.17a5.64,5.64,0,0,0-2.62-3.09L15,6A5.92,5.92,0,0,0,12.05,5.23Z"/><path class="cls-2" d="M16.66,4,42.9,19.38c6.32,3.65,6.17,15.78-.14,19.42L16.66,55.45a9.47,9.47,0,0,1-14.2-8.2l.26-35A9.27,9.27,0,0,1,16.66,4Z"/><path class="cls-3" d="M16.13,3.6,42.72,19.18c5.83,3.24,5.69,11.57-.25,15L15.34,50.64C9.4,54.07,2.12,50,2.23,43.36l.53-32A9.09,9.09,0,0,1,16.13,3.6Z"/><rect class="cls-4" x="8.86" y="10.73" width="18.89" height="11.35" rx="4.69" transform="translate(25.96 39.76) rotate(-150)"/></g></svg>