<svg xmlns="http://www.w3.org/2000/svg" viewBox="0 0 85.8 74.7"><defs><style>.cls-1,.cls-2{fill:none;stroke:#0d1f3f;stroke-miterlimit:10;}.cls-1{stroke-width:5px;}.cls-2{stroke-width:6px;}.cls-3{fill:#85002e;}.cls-4{fill:#f32b6e;}.cls-5{fill:#ffa2c4;}</style></defs><g id="Layer_2" data-name="Layer 2"><path class="cls-1" d="M51,55.41a6.73,6.73,0,0,0-3.31.88A21.59,21.59,0,1,1,53,22.44l9.67-9a34.85,34.85,0,1,0-9.32,54.93A6.66,6.66,0,0,0,51,55.41Z"/><path class="cls-2" d="M46,26.68l-.95.94a7.35,7.35,0,0,0,3.29,12.3l23.48,5.19c4,1.08,8.75-2.21,10.37-6.21a6.38,6.38,0,0,0,.38-4.58l-6-23.16A7.06,7.06,0,0,0,64.92,8.05l0,0c-.17.14-.33.29-.49.45Z"/><path class="cls-3" d="M76.54,11.52l6,22.85C84,39.84,77.24,46.42,71.77,45L48.29,39.77A7.36,7.36,0,0,1,45,27.46L64.39,8.37A7.2,7.2,0,0,1,76.54,11.52Z"/><path class="cls-4" d="M76.48,11l6,23.16a6.67,6.67,0,0,1-8.38,8.1L50.21,36.4A6.66,6.66,0,0,1,47,25.2L64.9,7.9A7.06,7.06,0,0,1,76.48,11Z"/><rect class="cls-5" x="63.31" y="14.82" width="14.67" height="8.82" rx="3.64" transform="matrix(-0.26, -0.97, 0.97, -0.26, 70.35, 92.44)"/><path class="cls-4" d="M51,55.41a6.73,6.73,0,0,0-3.31.88A21.59,21.59,0,1,1,53,22.44l9.67-9a34.85,34.85,0,1,0-9.32,54.93A6.66,6.66,0,0,0,51,55.41Z"/><polygon class="cls-3" points="51.41 20.85 61.03 11.74 58.11 9.51 48.65 19.05 51.41 20.85"/></g></svg>