<svg xmlns="http://www.w3.org/2000/svg" viewBox="0 0 32 30.38"><defs><style>.cls-1{fill:none;stroke:#0d1f3f;stroke-miterlimit:10;stroke-width:2.54px;}.cls-2{fill:#3880d2;}.cls-3{fill:#2752a4;}.cls-4{fill:#2758a8;}.cls-5{fill:#234d91;}.cls-6{fill:#50a8ff;}.cls-7{fill:#85002e;}.cls-8{fill:#f32b6e;}</style></defs><g id="Layer_2" data-name="Layer 2"><path class="cls-1" d="M26.8,7H21.26A3.92,3.92,0,0,1,19,6.32L12.4,1.74a3.17,3.17,0,0,0-1.85-.46h-.07l-.28,0h0a3.26,3.26,0,0,0-.8.26l-.1,0-.2.11-.12.07-.17.12-.25.21-.11.12-.15.15a1.13,1.13,0,0,1-.1.13L8,2.73A.75.75,0,0,0,8,2.85a3.3,3.3,0,0,0-.18.32.64.64,0,0,1,0,.07c0,.1-.08.2-.11.3l0,.12a1.4,1.4,0,0,0-.06.28.51.51,0,0,0,0,.13,2.73,2.73,0,0,0,0,.41h0V9.33H7.33a5.77,5.77,0,0,0,0,11.54h.18v5h0a2.6,2.6,0,0,0,0,.4.51.51,0,0,0,0,.13,1.57,1.57,0,0,0,.06.28l0,.12c0,.1.07.2.1.29l0,.08a3.24,3.24,0,0,0,.17.32l.08.12a2.14,2.14,0,0,0,.13.19,1.47,1.47,0,0,1,.1.13l.14.15.12.12.18.15a2.27,2.27,0,0,0,.25.18l.11.07.2.11.09.05a3.16,3.16,0,0,0,1.13.3h.35a3.23,3.23,0,0,0,1.55-.46L20,23.46a.27.27,0,0,1,.12,0H26.8a3.64,3.64,0,0,0,3.64-3.63V10.65A3.64,3.64,0,0,0,26.8,7Z"/><circle class="cls-2" cx="7.33" cy="15.09" r="5.77"/><ellipse class="cls-3" cx="7.78" cy="15.02" rx="4.59" ry="5.67"/><path class="cls-4" d="M21.26,7A3.92,3.92,0,0,1,19,6.32L12.4,1.74A3.21,3.21,0,0,0,7.51,4.48V25.9a3.21,3.21,0,0,0,4.87,2.75L20,23.46a.27.27,0,0,1,.12,0H26.8a3.64,3.64,0,0,0,3.64-3.63V10.65A3.64,3.64,0,0,0,26.8,7Z"/><path class="cls-2" d="M10.83,1.27A3.22,3.22,0,0,0,7.51,4.48V25.9a3.21,3.21,0,0,0,3.32,3.21Z"/><path class="cls-5" d="M23.83,7h-3a3.93,3.93,0,0,1-1.81-.44V23.82l.52-.36a.27.27,0,0,1,.12,0h4.14Z"/><circle class="cls-6" cx="9.2" cy="4.23" r="1.29"/><circle class="cls-6" cx="8.8" cy="7.01" r="0.9"/><rect class="cls-7" x="15.15" y="0.85" width="3.21" height="29.33" rx="1.61" transform="translate(15.88 -7.3) rotate(45)"/><rect class="cls-7" x="13.86" y="0.85" width="3.21" height="29.33" rx="1.61" transform="translate(37.37 15.55) rotate(135)"/><rect class="cls-8" x="14.52" y="0.22" width="3.21" height="29.33" rx="1.61" transform="translate(15.25 -7.04) rotate(45)"/><rect class="cls-8" x="14.52" y="0.22" width="3.21" height="29.33" rx="1.61" transform="translate(38.05 14.01) rotate(135)"/></g></svg>