<svg xmlns="http://www.w3.org/2000/svg" viewBox="0 0 72.84 101.08"><defs><style>.cls-1{fill:#8aebdd;stroke:#0d1f3f;stroke-miterlimit:10;stroke-width:6px;}.cls-2{fill:#254b4f;}.cls-3{fill:#32636b;}.cls-4{fill:#ffde39;}.cls-5{fill:#3a7684;}.cls-6{fill:#468f9b;}.cls-7{fill:#69c6e0;}.cls-8{fill:#6cffd5;}.cls-9{fill:#fbffd1;}</style></defs><g id="Layer_2" data-name="Layer 2"><path class="cls-1" d="M17.62,42.33,15.75,3h2L32.2,41.9a11.19,11.19,0,0,1,2.73.94h0a42,42,0,0,1,16.48,7.22A26.25,26.25,0,0,1,62.93,71.8c0,.5,0,1,0,1.51l7-1.17v1.57l-8.08,5.84A26.28,26.28,0,0,1,18.39,90.7c-.65-.5-1.29-1-1.91-1.62L3,90V88.42l7.79-6.52C5,70.26,5.16,64.68,5.16,64.68,5.22,58.08,7.53,51.42,12,47.2a18.31,18.31,0,0,1,4.1-2.9A2.89,2.89,0,0,1,17.62,42.33Z"/><polygon class="cls-2" points="51.26 83.65 69.84 73.71 69.84 72.14 61.19 76.68 51.26 82.08 51.26 83.65"/><polygon class="cls-3" points="51.26 82.08 69.84 72.14 59.78 72.92 51.26 82.08"/><path class="cls-4" d="M53,51.27c11.18,9.27,10.27,26.91,0,37.18a26.29,26.29,0,0,1-37.17,0c-10.26-10.27-14.45-30-4.19-40.24S41.64,41.87,53,51.27Z"/><path class="cls-5" d="M12.92,49.56c5-5.33,14.14-5.66,22-6.72-5-2.63-16.57-1.71-23,4.36C6.14,52.74,4,62.48,5.75,70.75,6.21,63,7.44,55.46,12.92,49.56Z"/><circle class="cls-6" cx="36.64" cy="71.8" r="26.28"/><circle class="cls-7" cx="36.64" cy="69.1" r="20.89"/><path class="cls-8" d="M49.23,61.57c3.47,7.57-1.12,11.71-8.26,15S26.85,81,23.38,73.41,22.89,57.05,30,53.78,45.77,54,49.23,61.57Z"/><circle class="cls-9" cx="36.64" cy="60.61" r="6.7"/><circle class="cls-9" cx="29.94" cy="70.75" r="3.75"/><path class="cls-6" d="M15.75,44.16,25,48.21,40.51,45.8a53.58,53.58,0,0,0-16.87-4.88S17.32,41,15.75,44.16Z"/><path class="cls-7" d="M21.78,42.6a52.63,52.63,0,0,1,14.56,3.84l4.12-.64a53.58,53.58,0,0,0-16.87-4.88S17.51,41,15.8,44A15,15,0,0,1,21.78,42.6Z"/><path class="cls-6" d="M5.48,63s-1.16,2.14.79,8.53A19.6,19.6,0,0,0,12,80.89V69.1Z"/><path class="cls-7" d="M5.48,63.07a6.83,6.83,0,0,0-.28,3.51,3.45,3.45,0,0,1,.28-1.1L12,71.54V69.13Z"/><polygon class="cls-5" points="22.85 88.65 3 90 3 88.42 12.92 81.68 22.85 87.07 22.85 88.65"/><polygon class="cls-7" points="22.85 87.07 3 88.42 12.92 80.11 22.85 87.07"/><polygon class="cls-7" points="33.19 44.56 17.77 3 15.75 3 29.94 45.51 33.19 44.56"/><path class="cls-5" d="M17.62,42.34,15.75,3,29.94,45.51A28.13,28.13,0,0,0,17.62,42.34Z"/></g></svg>