<svg xmlns="http://www.w3.org/2000/svg" viewBox="0 0 31.76 34.43"><defs><style>.cls-1{fill:none;stroke:#0d1f3f;stroke-miterlimit:10;stroke-width:4px;}.cls-2{fill:#ffba06;}.cls-3{fill:#bf8400;}.cls-4{fill:#ffdc48;}</style></defs><g id="Layer_2" data-name="Layer 2"><rect class="cls-1" x="17.85" y="2" width="11.92" height="30.43" rx="3.75"/><rect class="cls-1" x="2" y="2" width="11.92" height="30.43" rx="3.75"/><rect class="cls-2" x="17.85" y="1.9" width="11.92" height="30.43" rx="3.75"/><rect class="cls-2" x="2" y="1.9" width="11.92" height="30.43" rx="3.75"/><path class="cls-3" d="M12.22,2.43a3.69,3.69,0,0,1,.54,1.91V27.26A3.75,3.75,0,0,1,9,31H4.6a3.76,3.76,0,0,1-1.91-.54,3.74,3.74,0,0,0,3.22,1.84h4.41a3.75,3.75,0,0,0,3.75-3.75V5.65A3.76,3.76,0,0,0,12.22,2.43Z"/><path class="cls-3" d="M28.07,2.43a3.79,3.79,0,0,1,.54,1.91V27.26A3.76,3.76,0,0,1,24.85,31H20.44a3.72,3.72,0,0,1-1.9-.54,3.72,3.72,0,0,0,3.21,1.84h4.41a3.75,3.75,0,0,0,3.75-3.75V5.65A3.75,3.75,0,0,0,28.07,2.43Z"/><rect class="cls-4" x="3.64" y="4.26" width="3.28" height="8.62" rx="1.64"/><rect class="cls-4" x="3.64" y="13.64" width="3.28" height="5.87" rx="1.35"/><rect class="cls-4" x="19.41" y="13.64" width="3.28" height="5.87" rx="1.35"/><rect class="cls-4" x="19.5" y="4.26" width="3.28" height="8.62" rx="1.64"/></g></svg>