<svg xmlns="http://www.w3.org/2000/svg" viewBox="0 0 34.11 32.89"><defs><style>.cls-1{fill:#af5700;}.cls-2{fill:#fff;}.cls-3{fill:#ffbc00;}.cls-4{fill:#ffd41d;}.cls-5{fill:#fffbe9;}</style></defs><g id="Layer_2" data-name="Layer 2"><path class="cls-1" d="M24.77,32.29a4,4,0,0,1-1.85-.46l-4.57-2.41a2.78,2.78,0,0,0-2.59,0l-4.57,2.41a4.05,4.05,0,0,1-1.85.46,4,4,0,0,1-3-1.43,3.91,3.91,0,0,1-.87-3.22l.88-5.09a2.81,2.81,0,0,0-.8-2.46L1.8,16.48A4,4,0,0,1,4,9.71L9.11,9a2.79,2.79,0,0,0,2.1-1.52l2.28-4.63a4,4,0,0,1,7.13,0L22.9,7.44A2.79,2.79,0,0,0,25,9l5.11.75a4,4,0,0,1,2.2,6.77l-3.7,3.61a2.78,2.78,0,0,0-.8,2.46l.87,5.09a3.87,3.87,0,0,1-.86,3.22A4,4,0,0,1,24.77,32.29Z"/><path class="cls-2" d="M17.05,1.19a3.33,3.33,0,0,1,3,1.89l2.29,4.63a3.38,3.38,0,0,0,2.54,1.84L30,10.3a3.37,3.37,0,0,1,1.87,5.76l-3.7,3.6a3.39,3.39,0,0,0-1,3l.88,5.09a3.38,3.38,0,0,1-3.33,4,3.35,3.35,0,0,1-1.57-.39l-4.57-2.4a3.42,3.42,0,0,0-1.58-.39,3.35,3.35,0,0,0-1.57.39l-4.57,2.4A3.37,3.37,0,0,1,6,27.74l.88-5.09a3.39,3.39,0,0,0-1-3l-3.69-3.6A3.37,3.37,0,0,1,4.09,10.3L9.2,9.55a3.38,3.38,0,0,0,2.54-1.84L14,3.08a3.33,3.33,0,0,1,3-1.89m0-1.19A4.53,4.53,0,0,0,13,2.55L10.67,7.18A2.18,2.18,0,0,1,9,8.37l-5.11.74a4.58,4.58,0,0,0-2.54,7.8l3.7,3.61a2.17,2.17,0,0,1,.63,1.93l-.87,5.09a4.45,4.45,0,0,0,1,3.7,4.58,4.58,0,0,0,3.51,1.65,4.46,4.46,0,0,0,2.13-.54L16,30a2.19,2.19,0,0,1,2,0l4.57,2.4a4.46,4.46,0,0,0,2.13.54,4.55,4.55,0,0,0,3.5-1.65,4.46,4.46,0,0,0,1-3.7l-.87-5.09A2.19,2.19,0,0,1,29,20.51l3.69-3.6a4.57,4.57,0,0,0-2.53-7.8l-5.11-.74a2.18,2.18,0,0,1-1.64-1.19L21.15,2.55A4.53,4.53,0,0,0,17.05,0Z"/><path class="cls-3" d="M19.57,5.68l1.89,3.67a2.82,2.82,0,0,0,2.11,1.47l4.24.58A2.65,2.65,0,0,1,29.36,16L26.3,18.83a2.59,2.59,0,0,0-.81,2.37l.72,4a2.77,2.77,0,0,1-4.06,2.82l-3.79-1.9a2.92,2.92,0,0,0-2.61,0L12,28.05a2.78,2.78,0,0,1-4.07-2.82l.73-4a2.62,2.62,0,0,0-.81-2.37L4.75,16A2.65,2.65,0,0,1,6.3,11.4l4.24-.58a2.82,2.82,0,0,0,2.11-1.47l1.89-3.67A2.87,2.87,0,0,1,19.57,5.68Z"/><path class="cls-4" d="M7.05,18a17.24,17.24,0,0,1,20,0l2.29-2.13a2.65,2.65,0,0,0-1.56-4.57l-4.24-.59a2.78,2.78,0,0,1-2.11-1.46L19.58,5.59a2.87,2.87,0,0,0-5,0L12.66,9.26a2.78,2.78,0,0,1-2.11,1.46l-4.24.59a2.65,2.65,0,0,0-1.55,4.57Z"/><circle class="cls-5" cx="7.05" cy="13.65" r="1.52"/><circle class="cls-5" cx="10.52" cy="12.7" r="0.98"/></g></svg>